<mxfile host="Electron" modified="2024-04-23T16:30:48.389Z" agent="Mozilla/5.0 (Windows NT 10.0; Win64; x64) AppleWebKit/537.36 (KHTML, like Gecko) draw.io/22.0.3 Chrome/114.0.5735.289 Electron/25.8.4 Safari/537.36" etag="8MUy7TdXokikQMepkT07" version="22.0.3" type="device">
  <diagram name="Pagina-1" id="OtF3hwSLVdu-5VBAtMXf">
    <mxGraphModel dx="856" dy="402" grid="1" gridSize="10" guides="1" tooltips="1" connect="1" arrows="1" fold="1" page="1" pageScale="1" pageWidth="827" pageHeight="1169" math="0" shadow="0">
      <root>
        <mxCell id="0" />
        <mxCell id="1" parent="0" />
        <mxCell id="YAIDZ0dp5Jc3mPSdS8DD-5" style="edgeStyle=orthogonalEdgeStyle;rounded=0;orthogonalLoop=1;jettySize=auto;html=1;exitX=0;exitY=0.5;exitDx=0;exitDy=0;" edge="1" parent="1" source="YAIDZ0dp5Jc3mPSdS8DD-1" target="YAIDZ0dp5Jc3mPSdS8DD-2">
          <mxGeometry relative="1" as="geometry" />
        </mxCell>
        <mxCell id="YAIDZ0dp5Jc3mPSdS8DD-7" style="edgeStyle=orthogonalEdgeStyle;rounded=0;orthogonalLoop=1;jettySize=auto;html=1;exitX=0.5;exitY=1;exitDx=0;exitDy=0;entryX=0.5;entryY=0;entryDx=0;entryDy=0;" edge="1" parent="1" source="YAIDZ0dp5Jc3mPSdS8DD-1" target="YAIDZ0dp5Jc3mPSdS8DD-6">
          <mxGeometry relative="1" as="geometry" />
        </mxCell>
        <mxCell id="YAIDZ0dp5Jc3mPSdS8DD-13" style="edgeStyle=orthogonalEdgeStyle;rounded=0;orthogonalLoop=1;jettySize=auto;html=1;exitX=1;exitY=0.5;exitDx=0;exitDy=0;" edge="1" parent="1" source="YAIDZ0dp5Jc3mPSdS8DD-1" target="YAIDZ0dp5Jc3mPSdS8DD-12">
          <mxGeometry relative="1" as="geometry" />
        </mxCell>
        <mxCell id="YAIDZ0dp5Jc3mPSdS8DD-1" value="Educazione finanziaria" style="rounded=1;whiteSpace=wrap;html=1;" vertex="1" parent="1">
          <mxGeometry x="325" y="70" width="120" height="60" as="geometry" />
        </mxCell>
        <mxCell id="YAIDZ0dp5Jc3mPSdS8DD-4" style="edgeStyle=orthogonalEdgeStyle;rounded=0;orthogonalLoop=1;jettySize=auto;html=1;exitX=0.5;exitY=1;exitDx=0;exitDy=0;entryX=0.5;entryY=0;entryDx=0;entryDy=0;" edge="1" parent="1" source="YAIDZ0dp5Jc3mPSdS8DD-2" target="YAIDZ0dp5Jc3mPSdS8DD-3">
          <mxGeometry relative="1" as="geometry" />
        </mxCell>
        <mxCell id="YAIDZ0dp5Jc3mPSdS8DD-2" value="Conto corrente bancario" style="rounded=0;whiteSpace=wrap;html=1;" vertex="1" parent="1">
          <mxGeometry x="100" y="160" width="120" height="60" as="geometry" />
        </mxCell>
        <mxCell id="YAIDZ0dp5Jc3mPSdS8DD-3" value="Conto deposito = contratto in base alle somme del cliente e interessi maturati" style="rounded=0;whiteSpace=wrap;html=1;" vertex="1" parent="1">
          <mxGeometry x="100" y="280" width="120" height="60" as="geometry" />
        </mxCell>
        <mxCell id="YAIDZ0dp5Jc3mPSdS8DD-9" style="edgeStyle=orthogonalEdgeStyle;rounded=0;orthogonalLoop=1;jettySize=auto;html=1;exitX=0.5;exitY=1;exitDx=0;exitDy=0;" edge="1" parent="1" source="YAIDZ0dp5Jc3mPSdS8DD-6" target="YAIDZ0dp5Jc3mPSdS8DD-8">
          <mxGeometry relative="1" as="geometry" />
        </mxCell>
        <mxCell id="YAIDZ0dp5Jc3mPSdS8DD-6" value="Borsa =&lt;br&gt;Mercato pubblico di compravendita di valori mobiliari (prezzo variabile)" style="rounded=0;whiteSpace=wrap;html=1;" vertex="1" parent="1">
          <mxGeometry x="300" y="160" width="170" height="80" as="geometry" />
        </mxCell>
        <mxCell id="YAIDZ0dp5Jc3mPSdS8DD-11" style="edgeStyle=orthogonalEdgeStyle;rounded=0;orthogonalLoop=1;jettySize=auto;html=1;exitX=0.5;exitY=1;exitDx=0;exitDy=0;" edge="1" parent="1" source="YAIDZ0dp5Jc3mPSdS8DD-8" target="YAIDZ0dp5Jc3mPSdS8DD-10">
          <mxGeometry relative="1" as="geometry" />
        </mxCell>
        <mxCell id="YAIDZ0dp5Jc3mPSdS8DD-8" value="Azioni =&amp;nbsp;&lt;br&gt;Titoli emessi da societÃ  come &quot;spa&quot; e &quot;saga&quot;&amp;nbsp;" style="rounded=0;whiteSpace=wrap;html=1;" vertex="1" parent="1">
          <mxGeometry x="300" y="270" width="170" height="80" as="geometry" />
        </mxCell>
        <mxCell id="YAIDZ0dp5Jc3mPSdS8DD-10" value="Obbligazioni =&lt;br&gt;Strumenti finanziari di debito e titoli di stato e finanziamento pubblico" style="rounded=0;whiteSpace=wrap;html=1;" vertex="1" parent="1">
          <mxGeometry x="300" y="370" width="170" height="80" as="geometry" />
        </mxCell>
        <mxCell id="YAIDZ0dp5Jc3mPSdS8DD-12" value="Mutuo bancario =&lt;br&gt;Contratto assicurativo che assicura un finanziamento con certezza di capitale" style="rounded=0;whiteSpace=wrap;html=1;" vertex="1" parent="1">
          <mxGeometry x="550" y="160" width="170" height="80" as="geometry" />
        </mxCell>
      </root>
    </mxGraphModel>
  </diagram>
</mxfile>
